<svg width="19.750977" height="21.357422" viewBox="0 0 19.751 21.3574" fill="none" xmlns="http://www.w3.org/2000/svg" xmlns:xlink="http://www.w3.org/1999/xlink">
	<desc>
			Created with Pixso.
	</desc>
	<defs/>
	<path d="M0.52 16.82Q1.12 19.18 2.42 21.35L6.75 19.61Q7.23 19.43 7.48 19.07Q7.61 18.9 7.68 18.68Q7.69 18.64 7.7 18.6Q7.86 17.98 7.4 17.2Q6.24 15.27 5.87 13.25Q5.52 11.23 5.73 9.36Q5.96 7.48 6.61 5.88Q7.28 4.28 8.15 3.19Q8.19 3.16 8.22 3.12Q8.48 2.79 8.54 2.3Q8.56 2.12 8.52 1.96Q8.43 1.61 8.05 1.33L5.85 0Q3.54 1.98 2.13 4.48Q2.08 4.57 2.04 4.65Q1.09 6.4 0.58 8.26Q0.33 9.16 0.19 10.08Q0.09 10.76 0.04 11.45Q-0.12 13.61 0.3 15.82Q0.39 16.32 0.52 16.82ZM11.72 16.82Q12.31 19.18 13.62 21.35L17.95 19.61Q18.42 19.43 18.68 19.07Q18.81 18.9 18.88 18.68Q18.89 18.64 18.9 18.6Q19.06 17.98 18.6 17.2Q17.44 15.27 17.07 13.25Q16.71 11.23 16.93 9.36Q17.15 7.48 17.8 5.88Q18.47 4.28 19.35 3.19Q19.38 3.16 19.41 3.12Q19.67 2.79 19.74 2.3Q19.76 2.12 19.72 1.96Q19.63 1.61 19.25 1.33L17.05 0Q14.74 1.98 13.33 4.48Q13.28 4.57 13.23 4.65Q12.28 6.4 11.78 8.26Q11.53 9.16 11.39 10.08Q11.28 10.76 11.23 11.45Q11.08 13.61 11.49 15.82Q11.59 16.32 11.72 16.82Z" fill="#3B83F6" fill-opacity="1.000000" fill-rule="evenodd"/>
</svg>
