<svg width="96.000000" height="96.000000" viewBox="0 0 96 96" fill="none" xmlns="http://www.w3.org/2000/svg" xmlns:xlink="http://www.w3.org/1999/xlink">
	<desc>
			Created with Pixso.
	</desc>
	<defs>
		<clipPath id="clip50_416">
			<rect id="headset alt" rx="-0.500000" width="95.000000" height="95.000000" transform="translate(0.500000 0.500000)" fill="white" fill-opacity="0"/>
		</clipPath>
	</defs>
	<rect id="headset alt" rx="-0.500000" width="95.000000" height="95.000000" transform="translate(0.500000 0.500000)" fill="#FFFFFF" fill-opacity="0"/>
	<g clip-path="url(#clip50_416)">
		<path id="secondary" d="M59.78 81L47.71 81C46.72 81 45.78 80.62 45.08 79.94C44.39 79.27 44 78.35 44 77.4C44 76.44 44.39 75.52 45.08 74.85C45.78 74.17 46.72 73.8 47.71 73.8L59.78 73.8C61.3 73.8 62.56 72.14 62.56 70.19L62.56 66.6C62.56 65.64 62.95 64.72 63.65 64.05C64.34 63.37 65.29 63 66.27 63C67.26 63 68.2 63.37 68.9 64.05C69.6 64.72 69.99 65.64 69.99 66.6L69.99 70.19C70.1 72.94 69.09 75.61 67.17 77.63C65.26 79.66 62.6 80.86 59.78 81Z" fill="#418DD9" fill-opacity="1.000000" fill-rule="nonzero"/>
		<path id="primary" d="M73.1 22.1C68.31 16.83 61.98 13.21 55.01 11.73C48.04 10.26 40.79 11.01 34.27 13.88C27.75 16.75 22.3 21.6 18.69 27.73C15.08 33.87 13.49 40.98 14.14 48.07L14.8 55.44C14.85 59.33 16.43 63.03 19.2 65.76C21.96 68.48 25.69 70.01 29.58 69.99L33.26 69.99C35.22 69.99 37.09 69.22 38.48 67.84C39.86 66.45 40.63 64.58 40.63 62.63L40.63 44.21C40.63 42.25 39.86 40.38 38.48 38.99C37.09 37.61 35.22 36.84 33.26 36.84L29.58 36.84C26.98 36.87 24.44 37.6 22.21 38.94C23.58 33.12 26.86 27.92 31.54 24.2C36.22 20.48 42.02 18.44 48 18.42C53.99 18.44 59.78 20.48 64.46 24.2C69.14 27.92 72.43 33.12 73.8 38.94C71.57 37.6 69.03 36.87 66.43 36.84L62.75 36.84C60.79 36.84 58.92 37.61 57.53 38.99C56.15 40.38 55.37 42.25 55.37 44.21L55.37 62.63C55.37 64.58 56.15 66.45 57.53 67.84C58.92 69.22 60.79 69.99 62.75 69.99L66.43 69.99C70.26 70 73.95 68.5 76.7 65.84C79.45 63.17 81.06 59.53 81.17 55.7L81.83 48.33C82.3 43.59 81.76 38.81 80.25 34.29C78.75 29.77 76.31 25.62 73.1 22.1Z" fill="#323847" fill-opacity="1.000000" fill-rule="nonzero"/>
	</g>
</svg>
