<svg width="96.000000" height="96.000000" viewBox="0 0 96 96" fill="none" xmlns="http://www.w3.org/2000/svg" xmlns:xlink="http://www.w3.org/1999/xlink">
	<desc>
			Created with Pixso.
	</desc>
	<defs>
		<clipPath id="clip50_366">
			<rect id="Frame 56/Variant3" rx="-0.500000" width="95.000000" height="95.000000" transform="translate(0.500000 0.500000)" fill="white" fill-opacity="0"/>
		</clipPath>
	</defs>
	<rect id="Frame 56/Variant3" rx="-0.500000" width="95.000000" height="95.000000" transform="translate(0.500000 0.500000)" fill="#FFFFFF" fill-opacity="0"/>
	<g clip-path="url(#clip50_366)">
		<path id="secondary" d="M73 34L62.5 34C61.57 34 60.68 34.37 60.02 35.04C59.36 35.71 59 36.62 59 37.57L59 80.42C59 81.37 59.36 82.28 60.02 82.95C60.68 83.62 61.57 84 62.5 84L76.5 84C77.42 84 78.31 83.62 78.97 82.95C79.63 82.28 80 81.37 80 80.42L80 41.14C80 39.24 79.26 37.43 77.94 36.09C76.63 34.75 74.85 34 73 34Z" fill="#418DD9" fill-opacity="1.000000" fill-rule="nonzero"/>
		<path id="primary" d="M80.39 76.8L66 76.8L66 15.6C65.99 15.02 65.85 14.46 65.59 13.96C65.33 13.45 64.95 13.01 64.48 12.68C64.02 12.35 63.49 12.13 62.92 12.04C62.36 11.95 61.78 12 61.24 12.18L20.53 25.75C19.09 26.22 17.84 27.14 16.95 28.37C16.07 29.6 15.59 31.07 15.6 32.59L15.6 76.8C14.64 76.8 13.72 77.17 13.05 77.85C12.37 78.52 12 79.44 12 80.4C12 81.35 12.37 82.27 13.05 82.94C13.72 83.62 14.64 84 15.6 84L80.39 84C81.35 84 82.27 83.62 82.94 82.94C83.62 82.27 84 81.35 84 80.4C84 79.44 83.62 78.52 82.94 77.85C82.27 77.17 81.35 76.8 80.39 76.8Z" fill="#323847" fill-opacity="1.000000" fill-rule="nonzero"/>
		<path id="secondary" d="M48.33 55L33.66 55C32.69 55 31.76 55.38 31.07 56.07C30.38 56.76 30 57.69 30 58.66L30 77L52 77L52 58.66C52 57.69 51.61 56.76 50.92 56.07C50.23 55.38 49.3 55 48.33 55Z" fill="#418DD9" fill-opacity="1.000000" fill-rule="nonzero"/>
	</g>
</svg>
