<svg width="96.000000" height="96.000000" viewBox="0 0 96 96" fill="none" xmlns="http://www.w3.org/2000/svg" xmlns:xlink="http://www.w3.org/1999/xlink">
	<desc>
			Created with Pixso.
	</desc>
	<defs>
		<clipPath id="clip50_403">
			<rect id="file-5" rx="-0.500000" width="95.000000" height="95.000000" transform="translate(0.500000 0.500000)" fill="white" fill-opacity="0"/>
		</clipPath>
	</defs>
	<rect id="file-5" rx="-0.500000" width="95.000000" height="95.000000" transform="translate(0.500000 0.500000)" fill="#FFFFFF" fill-opacity="0"/>
	<g clip-path="url(#clip50_403)">
		<path id="primary" d="M74.98 34.64L53.98 13.04C53.65 12.71 53.27 12.44 52.84 12.26C52.41 12.08 51.96 11.99 51.5 12L27 12C25.14 12 23.36 12.75 22.05 14.1C20.73 15.45 20 17.29 20 19.2L20 76.8C20 78.7 20.73 80.54 22.05 81.89C23.36 83.24 25.14 84 27 84L69 84C70.85 84 72.63 83.24 73.94 81.89C75.26 80.54 76 78.7 76 76.8L76 37.2C76 36.72 75.91 36.25 75.74 35.81C75.56 35.37 75.3 34.98 74.98 34.64Z" fill="#323847" fill-opacity="1.000000" fill-rule="nonzero"/>
		<path id="secondary" d="M75.97 37.76L52 34.12C51.54 34.06 51.1 33.9 50.7 33.65C50.3 33.41 49.96 33.09 49.68 32.7C49.4 32.31 49.2 31.87 49.09 31.41C48.97 30.94 48.95 30.45 49.02 29.97L52.48 12C53.16 12.13 53.79 12.47 54.28 12.98L75.04 34.81C75.39 35.2 75.66 35.66 75.82 36.17C75.98 36.68 76.03 37.22 75.97 37.76ZM65.59 66.36C65.59 65.39 65.23 64.47 64.58 63.78C63.93 63.1 63.05 62.72 62.13 62.72L34.45 62.72C33.54 62.72 32.66 63.1 32.01 63.78C31.36 64.47 31 65.39 31 66.36C31 67.32 31.36 68.25 32.01 68.93C32.66 69.61 33.54 70 34.45 70L62.13 70C63.05 70 63.93 69.61 64.58 68.93C65.23 68.25 65.59 67.32 65.59 66.36ZM65.59 51.8C65.59 50.84 65.23 49.91 64.58 49.23C63.93 48.55 63.05 48.16 62.13 48.16L34.45 48.16C33.54 48.16 32.66 48.55 32.01 49.23C31.36 49.91 31 50.84 31 51.8C31 52.77 31.36 53.69 32.01 54.37C32.66 55.06 33.54 55.44 34.45 55.44L62.13 55.44C63.05 55.44 63.93 55.06 64.58 54.37C65.23 53.69 65.59 52.77 65.59 51.8Z" fill="#418DD9" fill-opacity="1.000000" fill-rule="nonzero"/>
	</g>
</svg>
