<svg width="96.000000" height="96.000000" viewBox="0 0 96 96" fill="none" xmlns="http://www.w3.org/2000/svg" xmlns:xlink="http://www.w3.org/1999/xlink">
	<desc>
			Created with Pixso.
	</desc>
	<defs>
		<clipPath id="clip50_446">
			<rect id="conversation" rx="-0.500000" width="95.000000" height="95.000000" transform="translate(0.500000 0.500000)" fill="white" fill-opacity="0"/>
		</clipPath>
	</defs>
	<rect id="conversation" rx="-0.500000" width="95.000000" height="95.000000" transform="translate(0.500000 0.500000)" fill="#FFFFFF" fill-opacity="0"/>
	<g clip-path="url(#clip50_446)">
		<path id="secondary" d="M84.88 80.28L81.22 66.91C83.66 62.86 84.94 58.18 84.88 53.43C84.78 48.8 83.51 44.27 81.18 40.28C78.85 36.29 75.56 32.97 71.6 30.63C71 30.22 70.28 30 69.55 30C68.82 30 68.1 30.22 67.49 30.63C66.94 31.05 66.51 31.63 66.26 32.28C66.02 32.94 65.96 33.66 66.1 34.35C66.43 35.73 66.57 37.15 66.54 38.58C66.54 49.72 55.83 59 42.69 59C38.9 58.98 35.15 58.17 31.68 56.63C31.22 56.42 30.71 56.31 30.2 56.31C29.68 56.31 29.18 56.42 28.71 56.63L26.18 57.63C25.32 58.01 24.64 58.72 24.28 59.59C23.92 60.47 23.9 61.46 24.23 62.34C26.69 68.11 30.8 73 36.03 76.38C41.27 79.76 47.38 81.47 53.59 81.28C58.01 81.32 62.41 80.51 66.54 78.91L79.97 84.7C80.36 84.87 80.79 84.97 81.22 85C82.11 84.99 82.97 84.66 83.64 84.07C84.18 83.62 84.59 83.03 84.81 82.36C85.03 81.69 85.05 80.97 84.88 80.28Z" fill="#418DD9" fill-opacity="1.000000" fill-rule="nonzero"/>
		<path id="primary" d="M73.33 33.12C70.36 20.36 57.39 11 42.5 11C25.11 11 11 23.39 11 38.65C11.01 43.39 12.37 48.03 14.92 52.04L11.22 65.31C11.04 65.97 11.06 66.66 11.25 67.31C11.45 67.96 11.82 68.55 12.33 69C12.98 69.6 13.82 69.96 14.7 70C15.2 69.99 15.69 69.89 16.15 69.7L29.71 63.95C33.79 65.51 38.12 66.31 42.5 66.31C59.88 66.31 74 53.92 74 38.65C74 36.79 73.77 34.93 73.33 33.12Z" fill="#323847" fill-opacity="1.000000" fill-rule="nonzero"/>
	</g>
</svg>
