<svg width="1936.000000" height="547.000000" viewBox="0 0 1936 547" fill="none" xmlns="http://www.w3.org/2000/svg" xmlns:xlink="http://www.w3.org/1999/xlink">
	<desc>
			Created with Pixso.
	</desc>
	<defs>
		<clipPath id="clip32_11">
			<rect id="logo" width="1936.000000" height="547.000000" fill="white" fill-opacity="0"/>
		</clipPath>
	</defs>
	<g clip-path="url(#clip32_11)">
		<path id="path" d="M383.54 3.27C382.78 5.08 357.15 60.74 326.58 126.98C280.31 227.24 271 248.14 271 251.73L271 256.05L303.25 256.05L335.5 256.05L342.53 240.8L349.55 225.55L399.11 225.29L448.67 225.03L455.81 240.29L462.96 255.55L494.98 255.81L527 256.08L526.96 250.81C526.92 246 522.07 235.08 470.18 123.05L413.45 0.55L399.18 0.27L384.92 0L383.54 3.27ZM1112.53 3.27C1111.77 5.08 1086.14 60.75 1055.56 126.98C1009.33 227.2 1000 248.14 1000 251.73L1000 256.05L1032.25 256.03L1064.5 256.02L1071.55 240.78L1078.59 225.55L1128.13 225.29L1177.67 225.03L1184.81 240.29L1191.96 255.55L1223.98 255.81L1256 256.08L1255.94 250.81C1255.91 246.01 1251.01 234.97 1199.18 123.05L1142.44 0.55L1128.18 0.27L1113.92 0L1112.53 3.27ZM643.5 2.54C624.14 5.96 604.36 13.88 589.26 24.24C574.37 34.45 558.83 52.33 550.72 68.55C546.81 76.38 542.21 90.22 539.82 101.36C536.7 115.94 536.68 144.09 539.79 158.55C545.53 185.27 555.76 204.86 572.97 222.07C590.18 239.28 611.53 250.44 638.31 256.24C651.86 259.18 679.84 259.42 693.37 256.71C733.83 248.63 762.58 227.08 777.24 193.85C780.82 185.74 784.97 171.53 786.3 162.8L786.87 159.05L754.62 159.05L722.36 159.05L720.67 164.4C717.17 175.53 707.95 186.49 697.17 192.36C685.74 198.58 665.55 200.9 652.46 197.5C629.56 191.56 612.91 173.61 606.89 148.38C605.09 140.86 604.86 137.55 605.3 126.05C605.9 110.84 607.42 104.09 612.76 93.05C617.77 82.7 628.65 71.76 639.02 66.67C656.54 58.05 680.4 58.29 697.2 67.24C705.04 71.42 714.08 81.22 718.22 90.04L721.5 97.01L753.63 97.03L785.76 97.05L784.39 89.83C776 45.82 743.6 14.36 695.5 3.51C685.54 1.26 654.03 0.68 643.5 2.54ZM0 129.55L0 256.05L33.49 256.05L66.98 256.05L67.24 200.79L67.5 145.52L93.38 172.79C119.26 200.04 119.27 200.05 123.47 200.05C127.67 200.05 127.7 200.02 153.59 172.88L179.5 145.71L179.75 200.88L180.01 256.05L213.5 256.05L247 256.05L247 129.55L247 3.05L235.04 3.05L223.09 3.05L173.5 57.05C146.22 86.75 123.53 111.05 123.07 111.05C122.61 111.05 100.33 86.75 73.56 57.05L24.89 3.05L12.44 3.05L0 3.05L0 129.55ZM828 130.05L828 256.05L906.5 256.05L985 256.05L985 227.05L985 198.05L939 198.05L893 198.05L893 101.05L893 4.05L860.5 4.05L828 4.05L828 130.05ZM1227 9C1227 13.77 1228.46 16.3 1269.5 82.47L1312 151L1312 203.53L1312 256.05L1344 256.05L1376 256.05L1376 203.48L1376 150.91L1418.5 82.65C1460.22 15.64 1461 14.3 1461 9.22L1461 4.05L1425.72 4.05L1390.45 4.05L1367.95 45.3C1354.3 70.34 1344.89 86.55 1344.01 86.55C1343.13 86.55 1333.75 70.37 1320.12 45.3L1297.68 4.05L1262.34 4.05L1227 4.05L1227 9ZM413.05 136.31L426.6 167.55L399.65 167.82C384.82 167.96 372.54 167.93 372.36 167.75C371.9 167.29 398.32 105.05 398.97 105.06C399.26 105.06 405.59 119.12 413.05 136.31ZM1142.04 136.32L1155.57 167.55L1128.64 167.82C1113.81 167.96 1101.55 167.93 1101.37 167.75C1100.9 167.29 1127.32 105.05 1127.98 105.07C1128.26 105.08 1134.59 119.14 1142.04 136.32ZM317.18 324.3C316.12 326.64 293.55 375.58 267.01 433.05C240.48 490.53 218.13 539.02 217.36 540.82L215.95 544.1L232.59 543.82L249.23 543.55L256.43 528.05L263.63 512.55L323.43 512.55L383.23 512.55L390.43 528.05L397.63 543.55L413.81 543.83C426.31 544.04 430 543.81 430 542.84C430 542.15 406.94 491.74 378.75 430.81L327.51 320.05L323.3 320.05C319.31 320.05 318.99 320.28 317.18 324.3ZM577.63 321.56C572.76 322.35 563.71 324.72 557.52 326.83C508.22 343.63 480.22 389.02 485.06 444.3C487.6 473.31 497.11 495.22 514.95 513.14C527.75 526.01 540.78 534 558.83 540.05C582.59 548.01 614.25 547.99 638.22 540C660.06 532.71 677.86 518.89 688.83 500.71C692.37 494.84 698 481.79 698 479.45C698 478.31 694.99 478.05 681.75 478.06L665.5 478.07L662.09 484.31C657.07 493.5 645.34 504.71 635.5 509.74C625.84 514.67 619.37 516.59 607.56 518.05C571.82 522.46 538.91 501.59 526.05 466.37C517.61 443.24 518.16 416.31 527.52 393.97C536.03 373.64 553.77 357.45 574.47 351.11C594.34 345.03 619.81 347.34 637 356.79C644.71 361.03 657.4 373.46 660.99 380.3L663.49 385.05L680.31 385.05L697.13 385.05L696.5 382.8C696.16 381.56 694.14 376.95 692.01 372.55C680.03 347.76 658.23 331.16 627.5 323.43C614.72 320.21 591.26 319.33 577.63 321.56ZM1366 321.58C1342.26 325.3 1319.36 336.59 1303.63 352.33C1278.11 377.86 1267.28 417.16 1274.56 457.76C1283.02 504.75 1319.44 538.56 1368.72 545.14C1381.94 546.91 1404.13 545.77 1416.5 542.68C1444.36 535.74 1464.22 521.66 1477.35 499.55C1480.65 494.01 1486 481.3 1486 479.03C1486 478.43 1479.6 478.05 1469.56 478.05L1453.12 478.05L1449.82 484.3C1447.87 487.99 1443.41 493.68 1438.92 498.2C1425.5 511.71 1407.35 518.55 1385.5 518.33C1365.62 518.14 1349.36 511.8 1335.48 498.83C1313.47 478.28 1303.55 445.76 1309.57 413.91C1314.87 386 1328.9 366.48 1351.5 355.6C1365.65 348.79 1378.47 346.63 1395.53 348.2C1418.66 350.33 1437.22 361.4 1448.27 379.65L1451.5 384.99L1468.32 385.02L1485.14 385.05L1484.48 382.8C1482.9 377.37 1475.59 363.98 1470.69 357.55C1449.48 329.71 1407.07 315.14 1366 321.58ZM5 433.5L5 544.05L21.5 544.05L38 544.05L38 511.55L38 479.05L74.04 479.05C112.47 479.05 119.52 478.39 130.5 473.77C160.68 461.07 178.48 427.24 174.08 390.92C170.69 362.94 157.13 341.86 135.61 331.11C120.35 323.49 122.09 323.67 60.25 323.29L5 322.96L5 433.5ZM764 335.55L764 348.05L779 348.05L794 348.05L794 433.05L794 518.05L778 518.05L762 518.05L762 531.05L762 544.05L810 544.05L858 544.05L858 531.05L858 518.05L842 518.05L826 518.05L826 433.05L826 348.05L841 348.05L856 348.05L856 335.55L856 323.05L810 323.05L764 323.05L764 335.55ZM932 433.55L932 544.05L949 544.05L966 544.05L966 503.05L966 462.05L1006.5 462.05L1047 462.05L1047 448.55L1047 435.05L1006.5 435.05L966 435.05L966 392.05L966 349.05L1011.5 349.05L1057 349.05L1057 336.05L1057 323.05L994.5 323.05L932 323.05L932 433.55ZM1120 335.55L1120 348.05L1135 348.05L1150 348.05L1150 433.03L1150 518L1133.75 518.28L1117.5 518.55L1117.22 531.3L1116.93 544.05L1165.47 544.05L1214 544.05L1214 531.05L1214 518.05L1198 518.05L1182 518.05L1182 433.05L1182 348.05L1197 348.05L1212 348.05L1212 335.55L1212 323.05L1166 323.05L1120 323.05L1120 335.55ZM107.2 350.16C123.36 353.54 136.2 367.08 140.49 385.29C142.38 393.31 142.38 407.79 140.49 415.81C137.1 430.2 127.15 443.4 115.71 448.68L109.5 451.55L73.75 451.84L38 452.12L38 400.59L38 349.05L69.95 349.05C89.48 349.05 103.96 349.48 107.2 350.16ZM349.27 427.3C363.43 459.89 375.01 486.89 375.01 487.3C375 487.71 351.82 488.05 323.5 488.05C295.17 488.05 272 487.74 272 487.37C272 485.98 322.32 368.05 322.91 368.05C323.25 368.05 335.11 394.71 349.27 427.3Z" fill="#FFFFFF" fill-opacity="1.000000" fill-rule="evenodd"/>
		<path id="path" d="M1755.77 5.05L1537 5.05L1717.23 185.38L1537 365.72L1717.23 546.05L1936 546.05L1755.77 365.72L1936 185.38L1755.77 5.05Z" fill="#3B82F6" fill-opacity="1.000000" fill-rule="nonzero"/>
	</g>
</svg>
