<svg width="89.000000" height="89.000000" viewBox="0 0 89 89" fill="none" xmlns="http://www.w3.org/2000/svg" xmlns:xlink="http://www.w3.org/1999/xlink">
	<desc>
			Created with Pixso.
	</desc>
	<defs/>
	<rect id="Rectangle 229" rx="11.000000" width="89.000000" height="89.000000" fill="#F4F4F4" fill-opacity="1.000000"/>
	<path id="Vector" d="M66.56 62.04C64.8 60.27 60.55 57.69 58.49 56.65C55.8 55.3 55.58 55.18 53.47 56.75C52.06 57.8 51.12 58.74 49.47 58.38C47.82 58.03 44.24 56.05 41.1 52.92C37.97 49.8 35.87 46.11 35.52 44.47C35.16 42.82 36.11 41.9 37.15 40.49C38.61 38.5 38.5 38.16 37.25 35.48C36.28 33.39 33.62 29.17 31.85 27.43C29.95 25.55 29.95 25.88 28.72 26.39C27.73 26.81 26.77 27.32 25.87 27.91C24.1 29.09 23.12 30.07 22.43 31.53C21.74 33 21.43 36.44 24.98 42.88C28.53 49.32 31.01 52.62 36.16 57.75C41.31 62.89 45.27 65.65 51.06 68.9C58.22 72.91 60.97 72.12 62.44 71.44C63.91 70.75 64.89 69.78 66.07 68.01C66.67 67.11 67.18 66.15 67.6 65.16C68.11 63.94 68.44 63.94 66.56 62.04Z" fill="#F9EAB6" fill-opacity="1.000000" fill-rule="nonzero"/>
	<path id="Vector" d="M61.52 50.32C59.13 49.11 58.93 49.01 57.05 50.41C55.79 51.34 54.96 52.18 53.49 51.86C52.02 51.55 48.82 49.78 46.03 47C43.23 44.21 41.36 40.92 41.05 39.46C40.73 37.99 41.58 37.17 42.5 35.91C43.81 34.14 43.71 33.84 42.59 31.45C41.73 29.58 39.36 25.83 37.78 24.27C36.08 22.6 36.08 22.9 34.99 23.35C34.1 23.72 33.25 24.18 32.45 24.71C30.87 25.75 29.99 26.62 29.38 27.93C28.77 29.24 28.49 32.31 31.66 38.05C34.82 43.79 37.03 46.72 41.62 51.3C46.21 55.88 49.74 58.34 54.9 61.23C61.29 64.81 63.73 64.11 65.04 63.5C66.36 62.89 67.23 62.02 68.28 60.44C68.81 59.64 69.27 58.79 69.64 57.9C70.1 56.81 70.39 56.81 68.72 55.12C67.15 53.55 63.36 51.24 61.52 50.32Z" stroke="#418DD9" stroke-opacity="1.000000" stroke-width="3.000000"/>
</svg>
