<svg width="104.000000" height="104.000000" viewBox="0 0 104 104" fill="none" xmlns="http://www.w3.org/2000/svg" xmlns:xlink="http://www.w3.org/1999/xlink">
	<desc>
			Created with Pixso.
	</desc>
	<defs>
		<filter id="filter_50_1143_dd" x="0.000000" y="0.000000" width="104.000000" height="104.000000" filterUnits="userSpaceOnUse" color-interpolation-filters="sRGB">
			<feFlood flood-opacity="0" result="BackgroundImageFix"/>
			<feColorMatrix in="SourceAlpha" type="matrix" values="0 0 0 0 0 0 0 0 0 0 0 0 0 0 0 0 0 0 127 0" result="hardAlpha"/>
			<feOffset dx="0" dy="4"/>
			<feGaussianBlur stdDeviation="1.33333"/>
			<feComposite in2="hardAlpha" operator="out" k2="-1" k3="1"/>
			<feColorMatrix type="matrix" values="0 0 0 0 0 0 0 0 0 0 0 0 0 0 0 0 0 0 0.25 0"/>
			<feBlend mode="normal" in2="BackgroundImageFix" result="effect_dropShadow_1"/>
			<feBlend mode="normal" in="SourceGraphic" in2="effect_dropShadow_1" result="shape"/>
		</filter>
		<clipPath id="clip50_1143">
			<rect id="Frame 59/clipboard edit left-2" rx="-0.500000" width="95.000000" height="95.000000" transform="translate(4.500000 0.500000)" fill="white" fill-opacity="0"/>
		</clipPath>
	</defs>
	<g filter="url(#filter_50_1143_dd)">
		<rect id="Frame 59/clipboard edit left-2" rx="-0.500000" width="95.000000" height="95.000000" transform="translate(4.500000 0.500000)" fill="#FFFFFF" fill-opacity="0"/>
		<g clip-path="url(#clip50_1143)">
			<path id="primary" d="M38 13L80 13C83.86 13 87 16.13 87 20L87 76C87 79.86 83.86 83 80 83L38 83C34.13 83 31 79.86 31 76L31 20C31 16.13 34.13 13 38 13Z" fill="#323847" fill-opacity="1.000000" fill-rule="evenodd"/>
			<path id="secondary" d="M73 13L44.99 13L44.99 20C44.99 21.85 45.73 23.63 47.04 24.94C48.35 26.26 50.13 27 51.99 27L65.99 27C67.85 27 69.63 26.26 70.94 24.94C72.26 23.63 73 21.85 73 20L73 13ZM27.8 35.01L50.97 58.15C51.61 58.82 51.98 59.7 51.99 60.63L51.99 65.49C51.99 66.42 51.62 67.31 50.96 67.97C50.31 68.63 49.42 68.99 48.49 68.99L43.62 68.99C43.16 69 42.71 68.91 42.28 68.74C41.85 68.56 41.46 68.3 41.14 67.98L18 44.81C17.35 44.16 17 43.28 17 42.36C17 41.44 17.35 40.56 18 39.91L22.9 35.01C23.55 34.37 24.43 34.01 25.35 34.01C26.26 34.01 27.14 34.37 27.8 35.01Z" fill="#418DD9" fill-opacity="1.000000" fill-rule="nonzero"/>
		</g>
	</g>
</svg>
