<svg width="96.000000" height="96.000000" viewBox="0 0 96 96" fill="none" xmlns="http://www.w3.org/2000/svg" xmlns:xlink="http://www.w3.org/1999/xlink">
	<desc>
			Created with Pixso.
	</desc>
	<defs>
		<clipPath id="clip50_429">
			<rect id="Frame 56/Variant3" rx="-0.500000" width="95.000000" height="95.000000" transform="translate(0.500000 0.500000)" fill="white" fill-opacity="0"/>
		</clipPath>
	</defs>
	<rect id="Frame 56/Variant3" rx="-0.500000" width="95.000000" height="95.000000" transform="translate(0.500000 0.500000)" fill="#FFFFFF" fill-opacity="0"/>
	<g clip-path="url(#clip50_429)">
		<path id="primary" d="M81.91 39.36L79.2 38.68L76.68 29.76C76.19 28.09 75.18 26.63 73.79 25.6C72.41 24.56 70.73 24 69 24L56 24C56 21.87 55.15 19.84 53.65 18.34C52.15 16.84 50.12 16 48 16L16 16C13.87 16 11.84 16.84 10.34 18.34C8.84 19.84 8 21.87 8 24L8 64C8 66.12 8.84 68.15 10.34 69.65C11.84 71.15 13.87 72 16 72L80 72C82.12 72 84.15 71.15 85.65 69.65C87.15 68.15 88 66.12 88 64L88 47.12C87.99 45.33 87.39 43.59 86.29 42.19C85.19 40.78 83.65 39.78 81.91 39.36Z" fill="#323847" fill-opacity="1.000000" fill-rule="nonzero"/>
		<path id="secondary" d="M40 68C40 70.37 39.29 72.69 37.97 74.66C36.65 76.64 34.78 78.17 32.59 79.08C30.39 79.99 27.98 80.23 25.65 79.76C23.33 79.3 21.19 78.16 19.51 76.48C17.83 74.8 16.69 72.66 16.23 70.34C15.76 68.01 16 65.6 16.91 63.4C17.82 61.21 19.35 59.34 21.33 58.02C23.3 56.7 25.62 56 28 56C31.18 56 34.23 57.26 36.48 59.51C38.73 61.76 40 64.81 40 68ZM68 56C65.62 56 63.3 56.7 61.33 58.02C59.35 59.34 57.82 61.21 56.91 63.4C56 65.6 55.76 68.01 56.23 70.34C56.69 72.66 57.83 74.8 59.51 76.48C61.19 78.16 63.33 79.3 65.65 79.76C67.98 80.23 70.39 79.99 72.59 79.08C74.78 78.17 76.65 76.64 77.97 74.66C79.29 72.69 80 70.37 80 68C80 64.81 78.73 61.76 76.48 59.51C74.23 57.26 71.18 56 68 56ZM44 28L20 28C18.93 28 17.92 28.42 17.17 29.17C16.42 29.92 16 30.93 16 32C16 33.06 16.42 34.07 17.17 34.82C17.92 35.57 18.93 36 20 36L44 36C45.06 36 46.07 35.57 46.82 34.82C47.57 34.07 48 33.06 48 32C48 30.93 47.57 29.92 46.82 29.17C46.07 28.42 45.06 28 44 28Z" fill="#418DD9" fill-opacity="1.000000" fill-rule="nonzero"/>
	</g>
</svg>
