<svg width="1936" height="547" viewBox="0 0 1936 547" fill="none" xmlns="http://www.w3.org/2000/svg">
<path fill-rule="evenodd" clip-rule="evenodd" d="M383.543 3.277C382.785 5.08 357.153 60.749 326.582 126.986C280.31 227.245 271 248.141 271 251.736V256.055H303.251H335.502L342.531 240.805L349.559 225.555L399.116 225.296L448.674 225.037L455.819 240.296L462.964 255.555L494.982 255.819L527 256.083L526.96 250.819C526.924 246.005 522.072 235.086 470.188 123.055L413.456 0.555L399.189 0.277L384.921 0L383.543 3.277ZM1112.53 3.277C1111.77 5.08 1086.14 60.75 1055.57 126.989C1009.33 227.207 1000 248.147 1000 251.739V256.055L1032.25 256.039L1064.5 256.023L1071.55 240.789L1078.59 225.555L1128.13 225.296L1177.67 225.037L1184.82 240.296L1191.96 255.555L1223.98 255.819L1256 256.083L1255.95 250.819C1255.91 246.01 1251.01 234.972 1199.18 123.055L1142.45 0.555L1128.18 0.277L1113.92 0L1112.53 3.277ZM643.5 2.547C624.149 5.97 604.36 13.885 589.268 24.24C574.374 34.459 558.83 52.33 550.725 68.555C546.814 76.383 542.216 90.228 539.829 101.367C536.705 115.941 536.687 144.094 539.793 158.555C545.531 185.278 555.762 204.863 572.977 222.078C590.182 239.283 611.532 250.449 638.312 256.249C651.863 259.183 679.844 259.422 693.374 256.718C733.839 248.63 762.583 227.088 777.247 193.859C780.828 185.742 784.973 171.53 786.303 162.805L786.874 159.055H754.62H722.365L720.678 164.407C717.171 175.533 707.955 186.496 697.179 192.361C685.747 198.583 665.554 200.907 652.46 197.508C629.568 191.566 612.918 173.618 606.892 148.388C605.095 140.863 604.86 137.556 605.308 126.055C605.9 110.84 607.425 104.094 612.768 93.055C617.779 82.701 628.659 71.77 639.028 66.672C656.547 58.057 680.406 58.291 697.2 67.242C705.049 71.426 714.08 81.221 718.226 90.046L721.5 97.015L753.634 97.035L785.768 97.055L784.392 89.834C776.006 45.825 743.606 14.364 695.5 3.516C685.54 1.27 654.039 0.683001 643.5 2.547ZM0 129.555V256.055H33.492H66.983L67.242 200.79L67.5 145.524L93.386 172.79C119.265 200.048 119.273 200.055 123.476 200.055C127.675 200.055 127.706 200.028 153.59 172.883L179.5 145.711L179.758 200.883L180.017 256.055H213.508H247V129.555V3.055H235.048H223.095L173.5 57.055C146.223 86.755 123.53 111.055 123.071 111.055C122.613 111.055 100.335 86.755 73.565 57.055L24.892 3.055H12.446H0V129.555ZM828 130.055V256.055H906.5H985V227.055V198.055H939H893V101.055V4.055H860.5H828V130.055ZM1227 9.002C1227 13.778 1228.46 16.308 1269.5 82.479L1312 151.009V203.532V256.055H1344H1376V203.483V150.911L1418.5 82.654C1460.22 15.647 1461 14.303 1461 9.226V4.055H1425.72H1390.45L1367.95 45.305C1354.3 70.346 1344.89 86.555 1344.01 86.555C1343.13 86.555 1333.75 70.371 1320.12 45.305L1297.68 4.055H1262.34H1227V9.002ZM413.051 136.31L426.601 167.555L399.65 167.821C384.827 167.968 372.549 167.938 372.366 167.754C371.907 167.295 398.324 105.054 398.976 105.06C399.264 105.062 405.598 119.125 413.051 136.31ZM1142.04 136.322L1155.58 167.555L1128.64 167.821C1113.82 167.968 1101.55 167.938 1101.37 167.754C1100.9 167.293 1127.33 105.051 1127.98 105.072C1128.26 105.081 1134.59 119.143 1142.04 136.322ZM317.181 324.305C316.128 326.642 293.556 375.58 267.02 433.055C240.483 490.53 218.137 539.028 217.362 540.829L215.953 544.104L232.595 543.829L249.237 543.555L256.437 528.055L263.638 512.555H323.436H383.234L390.435 528.055L397.636 543.555L413.818 543.83C426.314 544.042 430 543.817 430 542.844C430 542.151 406.94 491.74 378.756 430.819L327.512 320.055H323.303C319.318 320.055 318.992 320.281 317.181 324.305ZM577.635 321.56C572.76 322.355 563.711 324.729 557.528 326.836C508.223 343.633 480.223 389.022 485.063 444.305C487.603 473.31 497.115 495.221 514.951 513.148C527.751 526.013 540.789 534.007 558.831 540.052C582.598 548.015 614.257 547.994 638.225 540C660.061 532.717 677.865 518.895 688.833 500.71C692.37 494.845 698 481.79 698 479.451C698 478.313 694.998 478.057 681.75 478.067L665.5 478.079L662.092 484.317C657.072 493.503 645.343 504.719 635.5 509.743C625.846 514.671 619.379 516.595 607.564 518.054C571.828 522.467 538.911 501.594 526.056 466.37C517.616 443.246 518.161 416.318 527.52 393.976C536.038 373.644 553.773 357.455 574.475 351.117C594.346 345.033 619.815 347.344 637 356.791C644.714 361.032 657.402 373.463 660.999 380.305L663.497 385.055H680.316H697.135L696.508 382.805C696.163 381.567 694.141 376.953 692.014 372.551C680.036 347.76 658.236 331.162 627.5 323.43C614.723 320.216 591.266 319.336 577.635 321.56ZM1366 321.582C1342.26 325.304 1319.36 336.598 1303.63 352.331C1278.11 377.861 1267.28 417.169 1274.57 457.765C1283.02 504.756 1319.44 538.562 1368.72 545.145C1381.94 546.912 1404.13 545.77 1416.5 542.686C1444.36 535.743 1464.22 521.664 1477.35 499.555C1480.65 494.011 1486 481.304 1486 479.032C1486 478.436 1479.6 478.055 1469.56 478.055H1453.12L1449.82 484.305C1447.87 487.997 1443.41 493.686 1438.92 498.204C1425.5 511.711 1407.35 518.554 1385.5 518.339C1365.62 518.144 1349.36 511.804 1335.48 498.839C1313.47 478.286 1303.55 445.763 1309.58 413.915C1314.87 386 1328.9 366.482 1351.5 355.603C1365.65 348.793 1378.47 346.639 1395.53 348.207C1418.66 350.333 1437.22 361.401 1448.27 379.653L1451.5 384.998L1468.32 385.027L1485.14 385.055L1484.48 382.805C1482.9 377.373 1475.59 363.981 1470.69 357.555C1449.48 329.711 1407.07 315.141 1366 321.582ZM5 433.508V544.055H21.5H38V511.555V479.055H74.042C112.474 479.055 119.527 478.396 130.5 473.778C160.686 461.077 178.483 427.241 174.081 390.921C170.691 362.946 157.135 341.869 135.615 331.114C120.357 323.49 122.099 323.67 60.25 323.295L5 322.961V433.508ZM764 335.555V348.055H779H794V433.055V518.055H778H762V531.055V544.055H810H858V531.055V518.055H842H826V433.055V348.055H841H856V335.555V323.055H810H764V335.555ZM932 433.555V544.055H949H966V503.055V462.055H1006.5H1047V448.555V435.055H1006.5H966V392.055V349.055H1011.5H1057V336.055V323.055H994.5H932V433.555ZM1120 335.555V348.055H1135H1150V433.03V518.005L1133.75 518.28L1117.5 518.555L1117.22 531.305L1116.94 544.055H1165.47H1214V531.055V518.055H1198H1182V433.055V348.055H1197H1212V335.555V323.055H1166H1120V335.555ZM107.201 350.164C123.369 353.546 136.202 367.088 140.494 385.295C142.386 393.318 142.386 407.792 140.494 415.815C137.102 430.205 127.153 443.401 115.712 448.686L109.5 451.555L73.75 451.841L38 452.127V400.591V349.055H69.951C89.487 349.055 103.961 349.486 107.201 350.164ZM349.275 427.305C363.434 459.892 375.015 486.892 375.01 487.305C375.004 487.718 351.825 488.055 323.5 488.055C295.175 488.055 272 487.748 272 487.374C272 485.989 322.327 368.055 322.917 368.055C323.255 368.055 335.115 394.718 349.275 427.305Z" fill="#14171F"/>
<path d="M1755.77 5.05518H1537L1717.23 185.389L1537 365.722L1717.23 546.055H1936L1755.77 365.722L1936 185.389L1755.77 5.05518Z" fill="#3B82F6"/>
</svg>
