<svg width="93" height="16" viewBox="0 0 93 16" fill="none" xmlns="http://www.w3.org/2000/svg">
<g clip-path="url(#clip0_155_6190)">
<path fill-rule="evenodd" clip-rule="evenodd" d="M1.12875 15.4396L1.37391 14.9166V0.958647L0.0901043 0.573858C0.00613356 0.548755 0.0733102 0.552023 0.112581 0.552023C1.03946 0.554638 7.56619 0.569674 7.56619 0.569674C9.94456 0.558691 11.9216 1.46176 13.4195 2.80543C14.8786 4.11423 15.8897 5.83452 15.8897 8.02372C15.8897 9.75172 15.2738 10.9476 14.592 11.977C12.0644 15.7937 7.25395 15.4995 7.25395 15.4995H1.1665C1.13581 15.4995 1.11566 15.4675 1.12875 15.4396ZM64.7895 0.547971V15.5048H76.4999V14.7149C73.5023 14.7149 70.5047 14.7149 67.5072 14.7149V8.25646H75.78V7.4276H67.4941V1.33507C70.4959 1.33507 73.4979 1.33507 76.4999 1.33507V0.56183L64.7895 0.547971ZM79.0657 15.5048V0.547971H87.1056C87.8998 0.547971 92.3774 1.11097 92.3774 4.19288C92.3774 6.75359 89.8159 8.02638 87.4765 8.02638H84.4056C84.4056 8.02638 84.3591 10.6508 88.7148 11.5277C90.0654 11.7996 91.0962 12.1714 91.7198 12.7121C93.1074 13.9152 92.925 15.5048 92.925 15.5048H89.1079C88.6199 14.6614 87.4428 13.5014 86.5627 12.7207C85.3623 11.6556 83.5342 9.63161 83.5342 7.54042H86.5528C86.9085 7.51085 87.9973 7.51013 88.8112 6.58525C89.2309 6.10848 89.4238 5.39382 89.4238 4.32297C89.4238 1.01252 85.8347 1.15255 85.6934 1.15255H81.6503V15.5048H79.0657ZM50.745 0.547971H53.523V14.74H62.494V15.5032L50.745 15.5048V0.547971ZM30.5574 15.5048H31.4197L34.0542 10.9013H43.2864L45.8787 15.4949H49.1059L40.4615 0.547971H37.1003L38.4305 1.73999L30.5574 15.5048ZM34.3985 10.2997L38.7028 2.77892L42.9469 10.2997H34.3985ZM17.627 0.547971V15.5048H29.3372V14.7149C26.3398 14.7149 23.3422 14.7149 20.3446 14.7149V8.25646H28.6175V7.4276H20.3315V1.33507C23.3334 1.33507 26.3353 1.33507 29.3372 1.33507V0.56183L17.627 0.547971ZM4.08721 0.891313C5.55389 0.891313 12.9103 0.547971 12.9103 8.02638C12.9103 12.4611 10.1224 14.8853 7.13222 14.8853H4.14748L4.08721 0.891313Z" fill="white"/>
</g>
<defs>
<clipPath id="clip0_155_6190">
<rect width="93" height="15.0359" fill="white" transform="translate(0 0.5)"/>
</clipPath>
</defs>
</svg>
