<svg width="96.000000" height="96.000000" viewBox="0 0 96 96" fill="none" xmlns="http://www.w3.org/2000/svg" xmlns:xlink="http://www.w3.org/1999/xlink">
	<desc>
			Created with Pixso.
	</desc>
	<defs>
		<clipPath id="clip29_445">
			<rect id="Frame 56/iconixto/solid/Property 34" rx="-0.500000" width="95.000000" height="95.000000" transform="translate(0.500000 0.500000)" fill="white" fill-opacity="0"/>
		</clipPath>
	</defs>
	<rect id="Frame 56/iconixto/solid/Property 34" rx="-0.500000" width="95.000000" height="95.000000" transform="translate(0.500000 0.500000)" fill="#FFFFFF" fill-opacity="0"/>
	<g clip-path="url(#clip29_445)">
		<path id="Vector" d="M28.44 17.1L30.26 16.1C32.93 14.63 36.18 14.63 38.85 16.1L49.91 22.18C50.04 22.25 50.18 22.33 50.31 22.41L43.47 26.42L28.44 17.1ZM19.2 22.18L23.95 19.57C24.14 20.04 24.48 20.46 24.94 20.75L38.65 29.24L37.7 29.8L37.68 29.8C35.73 30.97 33.29 31 31.3 29.89L18.37 22.7C18.64 22.51 18.92 22.34 19.2 22.18ZM47.8 50.58C47.63 48.85 46.44 47.35 44.73 46.73L37.04 43.95L37.04 35.32C38.15 35.06 39.23 34.63 40.24 34.03L40.24 34.03L53.51 26.25C53.56 26.23 53.6 26.2 53.65 26.17C54.17 27.3 54.46 28.55 54.46 29.84L54.46 39.23C54.46 42.08 53.07 44.72 50.77 46.35C50.95 46.61 51.19 46.84 51.48 47.02L65.18 55.51L64.23 56.07L64.22 56.08C62.26 57.24 59.82 57.28 57.83 56.17L47.8 50.58ZM14.65 29.84C14.65 28.7 14.87 27.6 15.29 26.58C15.4 26.67 15.52 26.76 15.65 26.83L28.86 34.19C29.87 34.75 30.96 35.15 32.07 35.39L32.07 42.15L30.43 41.56C29.35 41.17 28.16 41.17 27.08 41.56L17.02 45.19C15.52 43.6 14.65 41.48 14.65 39.23L14.65 29.84ZM54.97 43.38L56.8 42.37C59.47 40.9 62.72 40.9 65.39 42.37L76.45 48.45C76.58 48.53 76.71 48.6 76.84 48.68L70.01 52.69L54.97 43.38ZM15.55 49.78L27.37 45.61C28.26 45.3 29.24 45.3 30.13 45.61L41.95 49.78C43.49 50.33 44.51 51.71 44.51 53.26L44.51 63.67C44.51 70.98 34.73 77.13 30.58 79.41C29.45 80.03 28.07 80 26.97 79.34C22.85 76.87 13 70.27 13 63.67L13 53.26C13 51.71 14.01 50.33 15.55 49.78ZM63.58 79.97L63.58 61.6C64.69 61.33 65.77 60.9 66.77 60.31L66.78 60.3L80.05 52.53C80.1 52.5 80.14 52.47 80.18 52.45C80.71 53.58 81 54.82 81 56.11L81 65.51C81 68.69 79.25 71.62 76.45 73.16L65.39 79.25C64.81 79.56 64.2 79.81 63.58 80L63.58 79.97ZM44.56 72.38C46.5 69.81 47.82 66.94 47.82 63.92L47.82 56.25L55.39 60.46C56.41 61.03 57.49 61.43 58.6 61.66L58.6 79.97L58.6 80C57.98 79.81 57.38 79.56 56.8 79.25L45.74 73.16C45.32 72.93 44.93 72.67 44.56 72.38Z" fill="#323847" fill-opacity="1.000000" fill-rule="evenodd"/>
		<path id="Vector" d="M34.25 59L28.59 64.65C27.81 65.43 26.54 65.43 25.76 64.65L24 62.88" stroke="#69C647" stroke-opacity="1.000000" stroke-width="3.000000" stroke-linecap="round"/>
	</g>
</svg>
